<?xml version="1.0" encoding="utf-8"?>
<!-- Generator: Adobe Illustrator 24.0.1, SVG Export Plug-In . SVG Version: 6.00 Build 0)  -->
<svg version="1.1" id="Layer_1" xmlns="http://www.w3.org/2000/svg" xmlns:xlink="http://www.w3.org/1999/xlink" x="0px" y="0px"
	 viewBox="0 0 500 500" style="enable-background:new 0 0 500 500;" xml:space="preserve">
<style type="text/css">
	.st0{fill-rule:evenodd;clip-rule:evenodd;fill:#999999;}
</style>
<path class="st0" d="M31.95,431.71c0,20.08,16.26,36.34,36.34,36.34h363.42c20.08,0,36.34-16.26,36.34-36.34V68.29
	c0-20.08-16.26-36.34-36.34-36.34H68.29c-20.08,0-36.34,16.26-36.34,36.34L31.95,431.71L31.95,431.71z M259.09,413.54V268.17h-36.34
	v-54.51h36.34c0-93.67,3.99-99.94,118.11-99.94v54.51c-60.15,0-54.51,3.36-54.51,45.43h54.51v54.51h-54.51v145.37L259.09,413.54
	L259.09,413.54z"/>
</svg>
