<?xml version="1.0" encoding="utf-8"?>
<!-- Generator: Adobe Illustrator 21.0.2, SVG Export Plug-In . SVG Version: 6.00 Build 0)  -->
<svg version="1.1" id="Layer_1" xmlns="http://www.w3.org/2000/svg" xmlns:xlink="http://www.w3.org/1999/xlink" x="0px" y="0px"
	 viewBox="0 0 1455 294" style="enable-background:new 0 0 1455 294;" xml:space="preserve">
<style type="text/css">
	.st0{fill:#DF7D74;}
	.st1{fill:#E7B2A4;}
	.st2{fill:#CC3112;}
	.st3{fill:#888888;}
	.st4{clip-path:url(#SVGID_2_);fill:#888888;}
	.st5{clip-path:url(#SVGID_4_);fill:#888888;}
</style>
<g>
	<g>
		<polygon class="st0" points="91.1,11.3 318.3,11.3 361.2,79.9 236.9,282.7 164,282.7 48.3,79.9 		"/>
		<polygon class="st1" points="318.3,11.3 361.2,79.9 277.4,79.9 		"/>
		<polygon class="st1" points="91.1,11.3 132,79.9 48.3,79.9 		"/>
	</g>
	<polygon class="st2" points="132,79.9 277.4,79.9 204.7,213.9 	"/>
	<polygon class="st2" points="277.4,79.9 361.2,79.9 319.3,148.2 	"/>
	<polygon class="st1" points="277.4,79.9 164,282.7 236.9,282.7 319.3,148.2 	"/>
</g>
<g>
	<path class="st3" d="M755.9,162l-1.1,0.7c-2.3,1.5-5.5,0.8-7-1.5L710.5,103c-1.5-2.3-0.8-5.5,1.5-7l1.1-0.7c2.3-1.5,5.5-0.8,7,1.5
		l37.3,58.2C758.9,157.3,758.2,160.5,755.9,162z"/>
	<path class="st3" d="M562.5,197.5l1.1,0.7c2.3,1.5,5.5,0.8,7-1.5l37.3-58.2c1.5-2.3,0.8-5.5-1.5-7l-1.1-0.7c-2.3-1.5-5.5-0.8-7,1.5
		L561,190.6C559.5,192.9,560.2,196,562.5,197.5z"/>
	<path class="st3" d="M892.6,199.5L892.6,199.5c-3.1,0-5.7-2.6-5.7-5.7v-93.5c0-3.1,2.6-5.7,5.7-5.7l0,0c3.1,0,5.7,2.6,5.7,5.7v93.5
		C898.3,196.9,895.7,199.5,892.6,199.5z"/>
	<path class="st3" d="M1041.4,199.5L1041.4,199.5c-3.1,0-5.7-2.6-5.7-5.7v-93.5c0-3.1,2.6-5.7,5.7-5.7l0,0c3.1,0,5.7,2.6,5.7,5.7
		v93.5C1047.1,196.9,1044.5,199.5,1041.4,199.5z"/>
	<path class="st3" d="M1186.2,199.5L1186.2,199.5c-3.1,0-5.7-2.6-5.7-5.7v-93.5c0-3.1,2.6-5.7,5.7-5.7l0,0c3.1,0,5.7,2.6,5.7,5.7
		v93.5C1191.9,196.9,1189.3,199.5,1186.2,199.5z"/>
	<path class="st3" d="M977.5,100.2L977.5,100.2c0,3.1-2.6,5.7-5.7,5.7l-42.3,0c-3.1,0-5.7-2.6-5.7-5.7v0c0-3.1,2.6-5.7,5.7-5.7
		l42.3,0C974.9,94.5,977.5,97.1,977.5,100.2z"/>
	<path class="st3" d="M977.5,193.8L977.5,193.8c0,3.1-2.6,5.7-5.7,5.7l-42.3,0c-3.1,0-5.7-2.6-5.7-5.7v0c0-3.1,2.6-5.7,5.7-5.7
		l42.3,0C974.9,188.1,977.5,190.6,977.5,193.8z"/>
	<path class="st3" d="M962,144.1v1.8c0,2.6-2.2,4.8-4.8,4.8l-28.6,0c-2.6,0-4.8-2.2-4.8-4.8v-1.8c0-2.6,2.2-4.8,4.8-4.8l28.6,0
		C959.8,139.3,962,141.4,962,144.1z"/>
	<path class="st3" d="M619.5,167.3v1.8c0,2.6-2.2,4.8-4.8,4.8l-28.6,0c-2.6,0-4.8-2.2-4.8-4.8v-1.8c0-2.6,2.2-4.8,4.8-4.8l28.6,0
		C617.4,162.5,619.5,164.6,619.5,167.3z"/>
	<path class="st3" d="M765.7,198.2L765.7,198.2c-2.7-1.6-3.6-5.1-2.1-7.8l53.6-92.8c1.6-2.7,5.1-3.6,7.8-2.1l0,0
		c2.7,1.6,3.6,5.1,2.1,7.8l-53.6,92.8C771.9,198.9,768.4,199.8,765.7,198.2z"/>
	<path class="st3" d="M672.8,198.2L672.8,198.2c2.7-1.6,3.6-5.1,2.1-7.8l-53.6-92.8c-1.6-2.7-5.1-3.6-7.8-2.1v0
		c-2.7,1.6-3.6,5.1-2.1,7.8l53.6,92.8C666.6,198.9,670.1,199.8,672.8,198.2z"/>
	<g>
		<defs>
			<rect id="SVGID_1_" x="1215.7" y="94.5" width="48.8" height="65.5"/>
		</defs>
		<clipPath id="SVGID_2_">
			<use xlink:href="#SVGID_1_"  style="overflow:visible;"/>
		</clipPath>
		<path class="st4" d="M1223.5,94.5c-20.1,0-36.5,13.7-36.5,30.6c0,16.9,16.3,30.6,36.5,30.6s36.5-13.7,36.5-30.6
			C1259.9,108.2,1243.6,94.5,1223.5,94.5z M1223.5,148.1c-15.1,0-27.3-10.3-27.3-22.9c0-12.7,12.2-22.9,27.3-22.9
			s27.3,10.3,27.3,22.9C1250.8,137.8,1238.5,148.1,1223.5,148.1z"/>
	</g>
	<g>
		<defs>
			<rect id="SVGID_3_" x="1072.2" y="94.5" width="48.8" height="65.5"/>
		</defs>
		<clipPath id="SVGID_4_">
			<use xlink:href="#SVGID_3_"  style="overflow:visible;"/>
		</clipPath>
		<path class="st5" d="M1080,94.5c-20.1,0-36.5,13.7-36.5,30.6c0,16.9,16.3,30.6,36.5,30.6s36.5-13.7,36.5-30.6
			C1116.4,108.2,1100.1,94.5,1080,94.5z M1080,148.1c-15.1,0-27.3-10.3-27.3-22.9c0-12.7,12.2-22.9,27.3-22.9s27.3,10.3,27.3,22.9
			C1107.3,137.8,1095,148.1,1080,148.1z"/>
	</g>
	<path class="st3" d="M1215.7,147.1l52.9,43.4c2,1.7,2,4.8-0.1,6.4l0,0c-1.6,1.2-3.8,1.2-5.3-0.1l-47.6-41.7V147.1z"/>
	<g>
		<path class="st3" d="M1359.3,187c-17.9-5-31.1-21.2-31.1-40.5s13.1-35.4,31.1-40.5V95.9c-23.5,5.3-41.1,25.9-41.1,50.6
			c0,24.7,17.5,45.4,41.1,50.6V187z"/>
		<path class="st3" d="M1384.8,96.3v10.3c17,5.6,29.2,21.3,29.2,39.9c0,18.6-12.2,34.3-29.2,39.9v10.3c22.6-5.9,39.2-26.1,39.2-50.2
			S1407.4,102.2,1384.8,96.3z"/>
	</g>
	<g>
		<path class="st3" d="M485.2,108.7c0.8,0.4,1.6,0.8,2.3,1.3c3.1,2.1,5.4,4.7,6.8,7.9c1.1,2.5,3.6,4.2,6.5,4.2
			c4.9,0,8.3-4.6,6.4-8.8c-1.9-4.3-5.1-8-9.5-11.2c-3.7-2.7-7.9-4.7-12.6-6V108.7z"/>
		<path class="st3" d="M461.6,187.1c-3.7-0.8-7-2-9.8-3.7c-3.9-2.4-6.6-5.4-8-9.1c-0.8-2.1-3-3.5-5.4-3.5h-2.4
			c-3.8,0-6.7,3.4-5.6,6.7c1.9,5.6,5.5,10.3,10.9,14.1c5.6,3.9,12.4,6.4,20.4,7.3V187.1z"/>
		<path class="st3" d="M503.5,151.7c-5-4.4-13.1-7.8-24.5-10.4l-11.5-2.8c-7.6-1.8-13-3.9-16.3-6.3c-3.3-2.5-4.9-5.7-4.9-9.6
			c0-5.1,2.2-9.2,6.7-12.3c2.4-1.7,5.3-2.9,8.7-3.6V95c-7.4,1.1-13.6,3.5-18.7,7.2c-7.2,5.3-10.7,12.2-10.7,20.7
			c0,7.1,2.3,12.9,6.8,17.2c4.5,4.3,11.8,7.6,21.8,9.9l14.1,3.3c7.6,1.7,13.2,4,16.7,6.8c3.6,2.8,5.3,6.4,5.3,10.6
			c0,5-2.4,9.1-7.3,12.4c-1.4,0.9-2.8,1.7-4.4,2.3v12.3c5.7-1.3,10.6-3.5,14.7-6.5c7.4-5.5,11.1-12.8,11.1-22
			C511,161.9,508.5,156,503.5,151.7z"/>
	</g>
</g>
</svg>
