<?xml version="1.0" encoding="utf-8"?>
<!-- Generator: Adobe Illustrator 21.0.2, SVG Export Plug-In . SVG Version: 6.00 Build 0)  -->
<svg version="1.1" id="Layer_1" xmlns="http://www.w3.org/2000/svg" xmlns:xlink="http://www.w3.org/1999/xlink" x="0px" y="0px"
	 viewBox="0 0 1106 582" style="enable-background:new 0 0 1106 582;" xml:space="preserve">
<style type="text/css">
	.st0{fill:#DF7D74;}
	.st1{fill:#E7B2A4;}
	.st2{fill:#CC3112;}
	.st3{fill:#888888;}
	.st4{clip-path:url(#SVGID_2_);fill:#888888;}
	.st5{clip-path:url(#SVGID_4_);fill:#888888;}
	.st6{clip-path:url(#SVGID_6_);fill:#888888;}
	.st7{clip-path:url(#SVGID_8_);fill:#888888;}
</style>
<g>
	<g>
		<polygon class="st0" points="-1852.9,299.3 -1625.7,299.3 -1582.8,367.9 -1707.1,570.7 -1780,570.7 -1895.7,367.9 		"/>
		<polygon class="st1" points="-1625.7,299.3 -1582.8,367.9 -1666.6,367.9 		"/>
		<polygon class="st1" points="-1852.9,299.3 -1812,367.9 -1895.7,367.9 		"/>
	</g>
	<polygon class="st2" points="-1812,367.9 -1666.6,367.9 -1739.3,501.9 	"/>
	<polygon class="st2" points="-1666.6,367.9 -1582.8,367.9 -1624.7,436.2 	"/>
	<polygon class="st1" points="-1666.6,367.9 -1780,570.7 -1707.1,570.7 -1624.7,436.2 	"/>
</g>
<g>
	<path class="st3" d="M-1188.1,450l-1.1,0.7c-2.3,1.5-5.5,0.8-7-1.5l-37.3-58.2c-1.5-2.3-0.8-5.5,1.5-7l1.1-0.7
		c2.3-1.5,5.5-0.8,7,1.5l37.3,58.2C-1185.1,445.3-1185.8,448.5-1188.1,450z"/>
	<path class="st3" d="M-1381.5,485.5l1.1,0.7c2.3,1.5,5.5,0.8,7-1.5l37.3-58.2c1.5-2.3,0.8-5.5-1.5-7l-1.1-0.7
		c-2.3-1.5-5.5-0.8-7,1.5l-37.3,58.2C-1384.5,480.9-1383.8,484-1381.5,485.5z"/>
	<path class="st3" d="M-1051.4,487.5L-1051.4,487.5c-3.1,0-5.7-2.6-5.7-5.7l0-93.5c0-3.1,2.6-5.7,5.7-5.7l0,0c3.1,0,5.7,2.6,5.7,5.7
		l0,93.5C-1045.7,484.9-1048.3,487.5-1051.4,487.5z"/>
	<path class="st3" d="M-902.6,487.5L-902.6,487.5c-3.1,0-5.7-2.6-5.7-5.7l0-93.5c0-3.1,2.6-5.7,5.7-5.7l0,0c3.1,0,5.7,2.6,5.7,5.7
		l0,93.5C-896.9,484.9-899.5,487.5-902.6,487.5z"/>
	<path class="st3" d="M-757.8,487.5L-757.8,487.5c-3.1,0-5.7-2.6-5.7-5.7l0-93.5c0-3.1,2.6-5.7,5.7-5.7l0,0c3.1,0,5.7,2.6,5.7,5.7
		l0,93.5C-752.1,484.9-754.7,487.5-757.8,487.5z"/>
	<path class="st3" d="M-966.5,388.2L-966.5,388.2c0,3.1-2.6,5.7-5.7,5.7l-42.3,0c-3.1,0-5.7-2.6-5.7-5.7l0,0c0-3.1,2.6-5.7,5.7-5.7
		l42.3,0C-969.1,382.5-966.5,385.1-966.5,388.2z"/>
	<path class="st3" d="M-966.5,481.8L-966.5,481.8c0,3.1-2.6,5.7-5.7,5.7h-42.3c-3.1,0-5.7-2.6-5.7-5.7v0c0-3.1,2.6-5.7,5.7-5.7h42.3
		C-969.1,476.1-966.5,478.6-966.5,481.8z"/>
	<path class="st3" d="M-982,432.1v1.8c0,2.6-2.2,4.8-4.8,4.8l-28.6,0c-2.6,0-4.8-2.2-4.8-4.8v-1.8c0-2.6,2.2-4.8,4.8-4.8l28.6,0
		C-984.2,427.3-982,429.4-982,432.1z"/>
	<path class="st3" d="M-1324.5,455.3v1.8c0,2.6-2.2,4.8-4.8,4.8l-28.6,0c-2.6,0-4.8-2.2-4.8-4.8v-1.8c0-2.6,2.2-4.8,4.8-4.8h28.6
		C-1326.6,450.5-1324.5,452.6-1324.5,455.3z"/>
	<path class="st3" d="M-1178.3,486.2L-1178.3,486.2c-2.7-1.6-3.6-5.1-2.1-7.8l53.6-92.8c1.6-2.7,5.1-3.6,7.8-2.1l0,0
		c2.7,1.6,3.6,5.1,2.1,7.8l-53.6,92.8C-1172.1,486.9-1175.6,487.8-1178.3,486.2z"/>
	<path class="st3" d="M-1271.2,486.2L-1271.2,486.2c2.7-1.6,3.6-5.1,2.1-7.8l-53.6-92.8c-1.6-2.7-5.1-3.6-7.8-2.1l0,0
		c-2.7,1.6-3.6,5.1-2.1,7.8l53.6,92.8C-1277.4,486.9-1273.9,487.8-1271.2,486.2z"/>
	<g>
		<defs>
			<rect id="SVGID_1_" x="-728.3" y="382.5" width="48.8" height="65.5"/>
		</defs>
		<clipPath id="SVGID_2_">
			<use xlink:href="#SVGID_1_"  style="overflow:visible;"/>
		</clipPath>
		<path class="st4" d="M-720.5,382.5c-20.1,0-36.5,13.7-36.5,30.6c0,16.9,16.3,30.6,36.5,30.6s36.5-13.7,36.5-30.6
			C-684.1,396.2-700.4,382.5-720.5,382.5z M-720.5,436.1c-15.1,0-27.3-10.3-27.3-22.9c0-12.7,12.2-22.9,27.3-22.9
			c15.1,0,27.3,10.3,27.3,22.9C-693.2,425.8-705.5,436.1-720.5,436.1z"/>
	</g>
	<g>
		<defs>
			<rect id="SVGID_3_" x="-871.8" y="382.5" width="48.8" height="65.5"/>
		</defs>
		<clipPath id="SVGID_4_">
			<use xlink:href="#SVGID_3_"  style="overflow:visible;"/>
		</clipPath>
		<path class="st5" d="M-864,382.5c-20.1,0-36.5,13.7-36.5,30.6c0,16.9,16.3,30.6,36.5,30.6s36.5-13.7,36.5-30.6
			C-827.6,396.2-843.9,382.5-864,382.5z M-864,436.1c-15.1,0-27.3-10.3-27.3-22.9c0-12.7,12.2-22.9,27.3-22.9
			c15.1,0,27.3,10.3,27.3,22.9C-836.7,425.8-849,436.1-864,436.1z"/>
	</g>
	<path class="st3" d="M-728.3,435.1l52.9,43.4c2,1.7,2,4.8-0.1,6.4v0c-1.6,1.2-3.8,1.2-5.3-0.1l-47.6-41.7V435.1z"/>
	<g>
		<path class="st3" d="M-584.7,475c-17.9-5-31.1-21.2-31.1-40.5s13.1-35.4,31.1-40.5v-10.2c-23.5,5.3-41.1,25.9-41.1,50.6
			c0,24.7,17.5,45.4,41.1,50.6V475z"/>
		<path class="st3" d="M-559.2,384.3v10.3c17,5.6,29.2,21.3,29.2,39.9c0,18.6-12.2,34.3-29.2,39.9v10.3
			c22.6-5.9,39.2-26.1,39.2-50.2S-536.6,390.2-559.2,384.3z"/>
	</g>
	<g>
		<path class="st3" d="M-1458.8,396.7c0.8,0.4,1.6,0.8,2.3,1.3c3.1,2.1,5.4,4.7,6.8,7.9c1.1,2.5,3.6,4.2,6.5,4.2
			c4.9,0,8.3-4.6,6.4-8.8c-1.9-4.3-5.1-8-9.5-11.2c-3.7-2.7-7.9-4.7-12.6-6V396.7z"/>
		<path class="st3" d="M-1482.4,475.1c-3.7-0.8-7-2-9.8-3.7c-3.9-2.4-6.6-5.4-8-9.1c-0.8-2.1-3-3.5-5.4-3.5h-2.4
			c-3.8,0-6.7,3.4-5.6,6.7c1.9,5.6,5.5,10.3,10.9,14.1c5.6,3.9,12.4,6.4,20.4,7.3V475.1z"/>
		<path class="st3" d="M-1440.5,439.7c-5-4.4-13.1-7.8-24.5-10.4l-11.5-2.8c-7.6-1.8-13-3.9-16.3-6.3c-3.3-2.5-4.9-5.7-4.9-9.6
			c0-5.1,2.2-9.2,6.7-12.3c2.4-1.7,5.3-2.9,8.7-3.6V383c-7.4,1.1-13.6,3.5-18.7,7.2c-7.2,5.3-10.7,12.2-10.7,20.7
			c0,7.1,2.3,12.9,6.8,17.2c4.5,4.3,11.8,7.6,21.8,9.9l14.1,3.3c7.6,1.7,13.2,4,16.7,6.8c3.6,2.8,5.3,6.4,5.3,10.6
			c0,5-2.4,9.1-7.3,12.4c-1.4,0.9-2.8,1.7-4.4,2.3v12.3c5.7-1.3,10.6-3.5,14.7-6.5c7.4-5.5,11.1-12.8,11.1-22
			C-1433,449.9-1435.5,444-1440.5,439.7z"/>
	</g>
</g>
<g>
	<g>
		<polygon class="st0" points="455.1,57.3 682.2,57.3 725.1,125.9 600.8,328.7 527.9,328.7 412.2,125.9 		"/>
		<polygon class="st1" points="682.2,57.3 725.1,125.9 641.4,125.9 		"/>
		<polygon class="st1" points="455.1,57.3 495.9,125.9 412.2,125.9 		"/>
	</g>
	<polygon class="st2" points="495.9,125.9 641.4,125.9 568.6,259.9 	"/>
	<polygon class="st2" points="641.4,125.9 725.1,125.9 683.2,194.2 	"/>
	<polygon class="st1" points="641.4,125.9 527.9,328.7 600.8,328.7 683.2,194.2 	"/>
</g>
<g>
	<path class="st3" d="M397.5,450l-1.1,0.7c-2.3,1.5-5.5,0.8-7-1.5L352.1,391c-1.5-2.3-0.8-5.5,1.5-7l1.1-0.7c2.3-1.5,5.5-0.8,7,1.5
		L399,443C400.5,445.3,399.9,448.5,397.5,450z"/>
	<path class="st3" d="M204.1,485.5l1.1,0.7c2.3,1.5,5.5,0.8,7-1.5l37.3-58.2c1.5-2.3,0.8-5.5-1.5-7l-1.1-0.7c-2.3-1.5-5.5-0.8-7,1.5
		l-37.3,58.2C201.1,480.9,201.8,484,204.1,485.5z"/>
	<path class="st3" d="M534.2,487.5L534.2,487.5c-3.1,0-5.7-2.6-5.7-5.7v-93.5c0-3.1,2.6-5.7,5.7-5.7l0,0c3.1,0,5.7,2.6,5.7,5.7v93.5
		C539.9,484.9,537.3,487.5,534.2,487.5z"/>
	<path class="st3" d="M683,487.5L683,487.5c-3.1,0-5.7-2.6-5.7-5.7l0-93.5c0-3.1,2.6-5.7,5.7-5.7l0,0c3.1,0,5.7,2.6,5.7,5.7l0,93.5
		C688.7,484.9,686.2,487.5,683,487.5z"/>
	<path class="st3" d="M827.8,487.5L827.8,487.5c-3.1,0-5.7-2.6-5.7-5.7l0-93.5c0-3.1,2.6-5.7,5.7-5.7l0,0c3.1,0,5.7,2.6,5.7,5.7
		l0,93.5C833.5,484.9,831,487.5,827.8,487.5z"/>
	<path class="st3" d="M619.1,388.2L619.1,388.2c0,3.1-2.6,5.7-5.7,5.7l-42.3,0c-3.1,0-5.7-2.6-5.7-5.7l0,0c0-3.1,2.6-5.7,5.7-5.7
		l42.3,0C616.5,382.5,619.1,385.1,619.1,388.2z"/>
	<path class="st3" d="M619.1,481.8L619.1,481.8c0,3.1-2.6,5.7-5.7,5.7h-42.3c-3.1,0-5.7-2.6-5.7-5.7v0c0-3.1,2.6-5.7,5.7-5.7h42.3
		C616.5,476.1,619.1,478.6,619.1,481.8z"/>
	<path class="st3" d="M603.6,432.1v1.8c0,2.6-2.2,4.8-4.8,4.8l-28.6,0c-2.6,0-4.8-2.2-4.8-4.8v-1.8c0-2.6,2.2-4.8,4.8-4.8l28.6,0
		C601.4,427.3,603.6,429.4,603.6,432.1z"/>
	<path class="st3" d="M261.2,455.3v1.8c0,2.6-2.2,4.8-4.8,4.8l-28.6,0c-2.6,0-4.8-2.2-4.8-4.8v-1.8c0-2.6,2.2-4.8,4.8-4.8h28.6
		C259,450.5,261.2,452.6,261.2,455.3z"/>
	<path class="st3" d="M407.3,486.2L407.3,486.2c-2.7-1.6-3.6-5.1-2.1-7.8l53.6-92.8c1.6-2.7,5.1-3.6,7.8-2.1l0,0
		c2.7,1.6,3.6,5.1,2.1,7.8l-53.6,92.8C413.5,486.9,410,487.8,407.3,486.2z"/>
	<path class="st3" d="M314.5,486.2L314.5,486.2c2.7-1.6,3.6-5.1,2.1-7.8l-53.6-92.8c-1.6-2.7-5.1-3.6-7.8-2.1h0
		c-2.7,1.6-3.6,5.1-2.1,7.8l53.6,92.8C308.2,486.9,311.7,487.8,314.5,486.2z"/>
	<g>
		<defs>
			<rect id="SVGID_5_" x="857.3" y="382.5" width="48.8" height="65.5"/>
		</defs>
		<clipPath id="SVGID_6_">
			<use xlink:href="#SVGID_5_"  style="overflow:visible;"/>
		</clipPath>
		<path class="st6" d="M865.1,382.5c-20.1,0-36.5,13.7-36.5,30.6c0,16.9,16.3,30.6,36.5,30.6s36.5-13.7,36.5-30.6
			C901.6,396.2,885.2,382.5,865.1,382.5z M865.1,436.1c-15.1,0-27.3-10.3-27.3-22.9c0-12.7,12.2-22.9,27.3-22.9
			c15.1,0,27.3,10.3,27.3,22.9C892.4,425.8,880.2,436.1,865.1,436.1z"/>
	</g>
	<g>
		<defs>
			<rect id="SVGID_7_" x="713.8" y="382.5" width="48.8" height="65.5"/>
		</defs>
		<clipPath id="SVGID_8_">
			<use xlink:href="#SVGID_7_"  style="overflow:visible;"/>
		</clipPath>
		<path class="st7" d="M721.6,382.5c-20.1,0-36.5,13.7-36.5,30.6c0,16.9,16.3,30.6,36.5,30.6s36.5-13.7,36.5-30.6
			C758,396.2,741.7,382.5,721.6,382.5z M721.6,436.1c-15.1,0-27.3-10.3-27.3-22.9c0-12.7,12.2-22.9,27.3-22.9
			c15.1,0,27.3,10.3,27.3,22.9C748.9,425.8,736.7,436.1,721.6,436.1z"/>
	</g>
	<path class="st3" d="M857.3,435.1l52.9,43.4c2,1.7,2,4.8-0.1,6.4v0c-1.6,1.2-3.8,1.2-5.3-0.1l-47.6-41.7V435.1z"/>
	<g>
		<path class="st3" d="M1001,475c-17.9-5-31.1-21.2-31.1-40.5S983,399.1,1001,394v-10.2c-23.5,5.3-41.1,25.9-41.1,50.6
			c0,24.7,17.5,45.4,41.1,50.6V475z"/>
		<path class="st3" d="M1026.4,384.3v10.3c17,5.6,29.2,21.3,29.2,39.9c0,18.6-12.2,34.3-29.2,39.9v10.3
			c22.6-5.9,39.2-26.1,39.2-50.2S1049,390.2,1026.4,384.3z"/>
	</g>
	<g>
		<path class="st3" d="M126.8,396.7c0.8,0.4,1.6,0.8,2.3,1.3c3.1,2.1,5.4,4.7,6.8,7.9c1.1,2.5,3.6,4.2,6.5,4.2
			c4.9,0,8.3-4.6,6.4-8.8c-1.9-4.3-5.1-8-9.5-11.2c-3.7-2.7-7.9-4.7-12.6-6V396.7z"/>
		<path class="st3" d="M103.2,475.1c-3.7-0.8-7-2-9.8-3.7c-3.9-2.4-6.6-5.4-8-9.1c-0.8-2.1-3-3.5-5.4-3.5h-2.4
			c-3.8,0-6.7,3.4-5.6,6.7c1.9,5.6,5.5,10.3,10.9,14.1c5.6,3.9,12.4,6.4,20.4,7.3V475.1z"/>
		<path class="st3" d="M145.1,439.7c-5-4.4-13.1-7.8-24.5-10.4l-11.5-2.8c-7.6-1.8-13-3.9-16.3-6.3c-3.3-2.5-4.9-5.7-4.9-9.6
			c0-5.1,2.2-9.2,6.7-12.3c2.4-1.7,5.3-2.9,8.7-3.6V383c-7.4,1.1-13.6,3.5-18.7,7.2c-7.2,5.3-10.7,12.2-10.7,20.7
			c0,7.1,2.3,12.9,6.8,17.2c4.5,4.3,11.8,7.6,21.8,9.9l14.1,3.3c7.6,1.7,13.2,4,16.7,6.8c3.6,2.8,5.3,6.4,5.3,10.6
			c0,5-2.4,9.1-7.3,12.4c-1.4,0.9-2.8,1.7-4.4,2.3v12.3c5.7-1.3,10.6-3.5,14.7-6.5c7.4-5.5,11.1-12.8,11.1-22
			C152.6,449.9,150.1,444,145.1,439.7z"/>
	</g>
</g>
</svg>
