<?xml version="1.0" ?><svg viewBox="0 0 512 512" xmlns="http://www.w3.org/2000/svg"><defs><style>.cls-1{fill:#0071af;}.cls-2{fill:#00659d;}.cls-3{fill:#006095;}.cls-4{fill:#dfdfdf;}.cls-5{fill:#00b378;}.cls-6{fill:#bebebe;}.cls-7{fill:#59cea7;}.cls-8{fill:#ee9b9b;}.cls-9{fill:#096;}.cls-10{fill:#a2a2a2;}.cls-11{fill:#4cb08e;}</style></defs><title/><g data-name="/ FLAT" id="_FLAT"><path class="cls-1" d="M424,160H407.6084a87.97741,87.97741,0,0,0-145.37427-58.3844A96.0119,96.0119,0,1,0,75.822,146.887,71.999,71.999,0,0,0,96,288H424a64,64,0,0,0,0-128Z"/><path class="cls-2" d="M360.50433,224h0a8.01028,8.01028,0,0,1-7.9433-9.009,71.97827,71.97827,0,0,1,44.85845-57.93081,8.00989,8.00989,0,0,1,10.70671,5.44614l0,.0001a8.02267,8.02267,0,0,1-4.85738,9.44742,55.97841,55.97841,0,0,0-34.82578,44.98443A8.02211,8.02211,0,0,1,360.50433,224Z"/><path class="cls-2" d="M167.55213,216h0a7.96782,7.96782,0,0,1-7.93873-7.05835A64.09272,64.09272,0,0,0,96,152a64.81567,64.81567,0,0,0-7.21117.40215,7.992,7.992,0,0,1-8.68789-6.17319l-.001-.00436a7.97333,7.97333,0,0,1,6.80494-9.71132,80.05467,80.05467,0,0,1,88.61288,70.6731A7.98725,7.98725,0,0,1,167.55213,216Z"/><path class="cls-3" d="M447.53662,164.48724A263.79821,263.79821,0,0,1,224.00024,288H424a63.99871,63.99871,0,0,0,23.53662-123.51276Z"/><path class="cls-4" d="M336,320H176a16.00008,16.00008,0,0,0-16,16V456H352V336A16.00008,16.00008,0,0,0,336,320Z"/><path class="cls-2" d="M247.81141,172.95909l-.17374-.11551a7.92187,7.92187,0,0,1-2.50215-10.44964A87.64041,87.64041,0,0,0,256,120c0-2.46313-.10229-4.92908-.30554-7.3808a7.93905,7.93905,0,0,1,6.55247-8.54774l.19971-.03351A7.90436,7.90436,0,0,1,271.629,111.171c.24677,2.93356.371,5.8836.371,8.829a103.58187,103.58187,0,0,1-12.88539,50.17947A7.91033,7.91033,0,0,1,247.81141,172.95909Z"/><rect class="cls-5" height="176" rx="16" width="128" x="192" y="248"/><path class="cls-6" d="M144,456v16a16.00008,16.00008,0,0,0,16,16H352a16.00008,16.00008,0,0,0,16-16V456Z"/><rect class="cls-7" height="16" width="80" x="216" y="280"/><rect class="cls-7" height="16" width="80" x="216" y="312"/><rect class="cls-7" height="16" width="80" x="216" y="344"/><rect class="cls-7" height="16" width="80" x="216" y="376"/><path class="cls-8" d="M456,312H440a145.39079,145.39079,0,0,1-32,91.40533V376H392v56h56V416H418.3689A161.28136,161.28136,0,0,0,456,312Z"/><path class="cls-8" d="M73.46069,340.77472l16.88208,16.882,11.31446-11.31348L64,308.686,26.34277,346.34326l11.31446,11.31348,19.36621-19.36621a161.2726,161.2726,0,0,0,46.57422,96.62109l10.74511,10.74512,11.31446-11.31348-10.74512-10.74512A145.39821,145.39821,0,0,1,73.46069,340.77472Z"/><path class="cls-9" d="M203.88477,423.44592A15.97491,15.97491,0,0,0,208,424h96a16.00008,16.00008,0,0,0,16-16V296.00012A128.00736,128.00736,0,0,1,203.88477,423.44592Z"/><path class="cls-6" d="M298.63086,456H352V391.62152A168.66827,168.66827,0,0,1,298.63086,456Z"/><path class="cls-10" d="M200.00024,488H352a16.00008,16.00008,0,0,0,16-16V456H298.63086A167.22573,167.22573,0,0,1,200.00024,488Z"/><path class="cls-11" d="M276.648,392H296V376h-4.08057A128.76062,128.76062,0,0,1,276.648,392Z"/></g></svg>