<?xml version="1.0" encoding="utf-8"?>
<!-- Generator: Adobe Illustrator 24.0.1, SVG Export Plug-In . SVG Version: 6.00 Build 0)  -->
<svg version="1.1" id="Layer_1" xmlns="http://www.w3.org/2000/svg" xmlns:xlink="http://www.w3.org/1999/xlink" x="0px" y="0px"
	 viewBox="0 0 512 512" style="enable-background:new 0 0 512 512;" xml:space="preserve">
<style type="text/css">
	.st0{fill:#999999;}
</style>
<g id="XMLID_138_">
	<path id="XMLID_142_" class="st0" d="M378.7,141.5c-3.3-8.5-7.7-15.7-14.9-22.9c-7.2-7.2-14.4-11.6-22.9-14.9
		c-8.2-3.2-17.7-5.4-31.4-6c-13.8-0.6-18.2-0.8-53.4-0.8s-39.6,0.1-53.4,0.8c-13.8,0.6-23.2,2.8-31.4,6c-8.5,3.3-15.7,7.7-22.9,14.9
		s-11.6,14.4-14.9,22.9c-3.2,8.2-5.4,17.7-6,31.4c-0.6,13.8-0.8,18.2-0.8,53.4s0.1,39.6,0.8,53.4c0.6,13.8,2.8,23.2,6,31.4
		c3.3,8.5,7.7,15.7,14.9,22.9c7.2,7.2,14.4,11.6,22.9,14.9c8.2,3.2,17.7,5.4,31.4,6c13.8,0.6,18.2,0.8,53.4,0.8s39.6-0.1,53.4-0.8
		c13.8-0.6,23.2-2.8,31.4-6c8.5-3.3,15.7-7.7,22.9-14.9c7.2-7.2,11.6-14.4,14.9-22.9c3.2-8.2,5.4-17.7,6-31.4
		c0.6-13.8,0.8-18.2,0.8-53.4s-0.1-39.6-0.8-53.4C384.1,159.1,381.9,149.7,378.7,141.5z M361.4,278.6c-0.6,12.6-2.7,19.5-4.5,24
		c-2.3,6-5.2,10.4-9.7,14.9s-8.8,7.3-14.9,9.7c-4.6,1.8-11.4,3.9-24,4.5c-13.7,0.6-17.7,0.8-52.3,0.8s-38.7-0.1-52.3-0.8
		c-12.6-0.6-19.5-2.7-24-4.5c-6-2.3-10.4-5.2-14.9-9.7s-7.3-8.8-9.7-14.9c-1.8-4.6-3.9-11.4-4.5-24c-0.6-13.7-0.8-17.8-0.8-52.3
		s0.1-38.7,0.8-52.3c0.6-12.6,2.7-19.5,4.5-24c2.3-6,5.2-10.4,9.7-14.9s8.8-7.3,14.9-9.7c4.6-1.8,11.4-3.9,24-4.5
		c13.7-0.6,17.8-0.8,52.3-0.8s38.7,0.1,52.3,0.8c12.6,0.6,19.5,2.7,24,4.5c6,2.3,10.4,5.2,14.9,9.7s7.3,8.8,9.7,14.9
		c1.8,4.6,3.9,11.4,4.5,24c0.6,13.7,0.8,17.8,0.8,52.3S362,265,361.4,278.6z"/>
	<path id="XMLID_145_" class="st0" d="M256,159.8c-36.7,0-66.5,29.8-66.5,66.5s29.8,66.5,66.5,66.5s66.5-29.8,66.5-66.5
		S292.7,159.8,256,159.8z M256,269.5c-23.8,0-43.2-19.3-43.2-43.2c0-23.8,19.3-43.2,43.2-43.2s43.2,19.3,43.2,43.2
		C299.2,250.1,279.8,269.5,256,269.5z"/>
	<circle id="XMLID_143_" class="st0" cx="325.1" cy="157.2" r="15.5"/>
</g>
</svg>
